<mxfile host="app.diagrams.net" modified="2023-06-26T02:19:52.766Z" agent="Mozilla/5.0 (Macintosh; Intel Mac OS X 10_15_7) AppleWebKit/537.36 (KHTML, like Gecko) Chrome/114.0.0.0 Safari/537.36" etag="Ggp314ysOtMx6QUfEtH4" version="21.5.0" type="device">
  <diagram name="Page-1" id="sQMK0MMz5rOBd-AuqA_T">
    <mxGraphModel dx="1346" dy="1931" grid="1" gridSize="10" guides="1" tooltips="1" connect="1" arrows="1" fold="1" page="1" pageScale="1" pageWidth="827" pageHeight="1169" math="0" shadow="0">
      <root>
        <mxCell id="0" />
        <mxCell id="1" parent="0" />
        <mxCell id="YMjLnd_KSx6DE4UStiCu-51" value="" style="endArrow=classic;html=1;rounded=0;exitX=1;exitY=0;exitDx=0;exitDy=0;entryX=0;entryY=0.5;entryDx=0;entryDy=0;" edge="1" parent="1" source="YMjLnd_KSx6DE4UStiCu-1" target="YMjLnd_KSx6DE4UStiCu-2">
          <mxGeometry width="50" height="50" relative="1" as="geometry">
            <mxPoint x="330" y="-670" as="sourcePoint" />
            <mxPoint x="380" y="-720" as="targetPoint" />
          </mxGeometry>
        </mxCell>
        <mxCell id="YMjLnd_KSx6DE4UStiCu-1" value="&lt;font size=&quot;1&quot; face=&quot;Times New Roman&quot;&gt;&lt;b style=&quot;font-size: 15px;&quot;&gt;&lt;u&gt;A&lt;/u&gt;&lt;br&gt;1.1&lt;/b&gt;&lt;/font&gt;" style="ellipse;whiteSpace=wrap;html=1;fillColor=#ffe6cc;strokeColor=#d79b00;strokeWidth=2;align=center;verticalAlign=middle;spacing=0;spacingTop=-4;" vertex="1" parent="1">
          <mxGeometry x="280" y="-760" width="40" height="40" as="geometry" />
        </mxCell>
        <mxCell id="YMjLnd_KSx6DE4UStiCu-2" value="&lt;font size=&quot;1&quot; face=&quot;Times New Roman&quot;&gt;&lt;b style=&quot;font-size: 15px;&quot;&gt;&lt;u&gt;B&lt;/u&gt;&lt;br&gt;1.2&lt;/b&gt;&lt;/font&gt;" style="ellipse;whiteSpace=wrap;html=1;fillColor=#dae8fc;strokeColor=#6c8ebf;strokeWidth=2;align=center;verticalAlign=middle;spacing=0;spacingTop=-4;" vertex="1" parent="1">
          <mxGeometry x="360" y="-800" width="40" height="40" as="geometry" />
        </mxCell>
        <mxCell id="YMjLnd_KSx6DE4UStiCu-39" value="&lt;font size=&quot;1&quot; face=&quot;Times New Roman&quot;&gt;&lt;b style=&quot;font-size: 15px;&quot;&gt;&lt;u&gt;C&lt;/u&gt;&lt;br&gt;1.3&lt;/b&gt;&lt;/font&gt;" style="ellipse;whiteSpace=wrap;html=1;fillColor=#d5e8d4;strokeColor=#82b366;strokeWidth=2;align=center;verticalAlign=middle;spacing=0;spacingTop=-4;" vertex="1" parent="1">
          <mxGeometry x="440" y="-760" width="40" height="40" as="geometry" />
        </mxCell>
        <mxCell id="YMjLnd_KSx6DE4UStiCu-40" value="&lt;font size=&quot;1&quot; face=&quot;Times New Roman&quot;&gt;&lt;b style=&quot;font-size: 15px;&quot;&gt;&lt;u&gt;E&lt;/u&gt;&lt;br&gt;1.4&lt;/b&gt;&lt;/font&gt;" style="ellipse;whiteSpace=wrap;html=1;fillColor=#f8cecc;strokeColor=#b85450;strokeWidth=2;align=center;verticalAlign=middle;spacing=0;spacingTop=-4;" vertex="1" parent="1">
          <mxGeometry x="310" y="-680" width="40" height="40" as="geometry" />
        </mxCell>
        <mxCell id="YMjLnd_KSx6DE4UStiCu-41" value="&lt;font size=&quot;1&quot; face=&quot;Times New Roman&quot;&gt;&lt;b style=&quot;font-size: 15px;&quot;&gt;&lt;u&gt;D&lt;/u&gt;&lt;br&gt;1.0&lt;/b&gt;&lt;/font&gt;" style="ellipse;whiteSpace=wrap;html=1;fillColor=#e1d5e7;strokeColor=#9673a6;strokeWidth=2;align=center;verticalAlign=middle;spacing=0;spacingTop=-4;" vertex="1" parent="1">
          <mxGeometry x="410" y="-680" width="40" height="40" as="geometry" />
        </mxCell>
        <mxCell id="YMjLnd_KSx6DE4UStiCu-42" value="" style="group;rotation=-30;fillColor=none;" vertex="1" connectable="0" parent="1">
          <mxGeometry x="320" y="-774.5" width="29.33" height="12.5" as="geometry" />
        </mxCell>
        <mxCell id="YMjLnd_KSx6DE4UStiCu-43" value="" style="group;rotation=-30;fillColor=#FFFFFF;" vertex="1" connectable="0" parent="YMjLnd_KSx6DE4UStiCu-42">
          <mxGeometry x="0.24441666666666664" y="2.5" width="29.33" height="12.5" as="geometry" />
        </mxCell>
        <mxCell id="YMjLnd_KSx6DE4UStiCu-44" value="" style="rounded=0;whiteSpace=wrap;html=1;rotation=-30;" vertex="1" parent="YMjLnd_KSx6DE4UStiCu-43">
          <mxGeometry width="29.33" height="12.5" as="geometry" />
        </mxCell>
        <mxCell id="YMjLnd_KSx6DE4UStiCu-45" value="" style="endArrow=none;html=1;rounded=0;entryX=0.25;entryY=0;entryDx=0;entryDy=0;exitX=0.25;exitY=1;exitDx=0;exitDy=0;" edge="1" parent="YMjLnd_KSx6DE4UStiCu-43" source="YMjLnd_KSx6DE4UStiCu-44" target="YMjLnd_KSx6DE4UStiCu-44">
          <mxGeometry width="50" height="50" relative="1" as="geometry">
            <mxPoint x="10.99875" y="16.666666666666668" as="sourcePoint" />
            <mxPoint x="48.394499999999994" y="5.833333333333334" as="targetPoint" />
          </mxGeometry>
        </mxCell>
        <mxCell id="YMjLnd_KSx6DE4UStiCu-46" value="" style="endArrow=none;html=1;rounded=0;entryX=0.5;entryY=0;entryDx=0;entryDy=0;exitX=0.5;exitY=1;exitDx=0;exitDy=0;" edge="1" parent="YMjLnd_KSx6DE4UStiCu-43" source="YMjLnd_KSx6DE4UStiCu-44" target="YMjLnd_KSx6DE4UStiCu-44">
          <mxGeometry width="50" height="50" relative="1" as="geometry">
            <mxPoint x="17.598" y="10.833333333333334" as="sourcePoint" />
            <mxPoint x="14.665" y="6.666666666666667" as="targetPoint" />
          </mxGeometry>
        </mxCell>
        <mxCell id="YMjLnd_KSx6DE4UStiCu-47" value="" style="endArrow=none;html=1;rounded=0;entryX=0.75;entryY=0;entryDx=0;entryDy=0;exitX=0.75;exitY=1;exitDx=0;exitDy=0;" edge="1" parent="YMjLnd_KSx6DE4UStiCu-43" source="YMjLnd_KSx6DE4UStiCu-44" target="YMjLnd_KSx6DE4UStiCu-44">
          <mxGeometry width="50" height="50" relative="1" as="geometry">
            <mxPoint x="23.464" y="7.5" as="sourcePoint" />
            <mxPoint x="23.464" y="7.5" as="targetPoint" />
          </mxGeometry>
        </mxCell>
        <mxCell id="YMjLnd_KSx6DE4UStiCu-52" value="" style="endArrow=classic;html=1;rounded=0;exitX=1;exitY=0.5;exitDx=0;exitDy=0;entryX=0;entryY=0;entryDx=0;entryDy=0;" edge="1" parent="1" source="YMjLnd_KSx6DE4UStiCu-2" target="YMjLnd_KSx6DE4UStiCu-39">
          <mxGeometry width="50" height="50" relative="1" as="geometry">
            <mxPoint x="324" y="-744" as="sourcePoint" />
            <mxPoint x="370" y="-770" as="targetPoint" />
          </mxGeometry>
        </mxCell>
        <mxCell id="YMjLnd_KSx6DE4UStiCu-53" value="" style="endArrow=classic;html=1;rounded=0;exitX=0.5;exitY=1;exitDx=0;exitDy=0;entryX=1;entryY=0;entryDx=0;entryDy=0;" edge="1" parent="1" source="YMjLnd_KSx6DE4UStiCu-39" target="YMjLnd_KSx6DE4UStiCu-41">
          <mxGeometry width="50" height="50" relative="1" as="geometry">
            <mxPoint x="334" y="-734" as="sourcePoint" />
            <mxPoint x="380" y="-760" as="targetPoint" />
          </mxGeometry>
        </mxCell>
        <mxCell id="YMjLnd_KSx6DE4UStiCu-54" value="" style="endArrow=classic;html=1;rounded=0;exitX=0;exitY=0.5;exitDx=0;exitDy=0;entryX=1;entryY=0.5;entryDx=0;entryDy=0;" edge="1" parent="1" source="YMjLnd_KSx6DE4UStiCu-41" target="YMjLnd_KSx6DE4UStiCu-40">
          <mxGeometry width="50" height="50" relative="1" as="geometry">
            <mxPoint x="344" y="-724" as="sourcePoint" />
            <mxPoint x="390" y="-750" as="targetPoint" />
          </mxGeometry>
        </mxCell>
        <mxCell id="YMjLnd_KSx6DE4UStiCu-55" value="" style="endArrow=classic;html=1;rounded=0;exitX=0;exitY=0;exitDx=0;exitDy=0;entryX=0.5;entryY=1;entryDx=0;entryDy=0;" edge="1" parent="1" source="YMjLnd_KSx6DE4UStiCu-40" target="YMjLnd_KSx6DE4UStiCu-1">
          <mxGeometry width="50" height="50" relative="1" as="geometry">
            <mxPoint x="354" y="-714" as="sourcePoint" />
            <mxPoint x="400" y="-740" as="targetPoint" />
          </mxGeometry>
        </mxCell>
        <mxCell id="YMjLnd_KSx6DE4UStiCu-57" value="" style="group;rotation=-30;fillColor=#FFFFFF;" vertex="1" connectable="0" parent="1">
          <mxGeometry x="405.00441666666666" y="-775.5" width="29.33" height="12.5" as="geometry" />
        </mxCell>
        <mxCell id="YMjLnd_KSx6DE4UStiCu-58" value="" style="rounded=0;whiteSpace=wrap;html=1;rotation=30;" vertex="1" parent="YMjLnd_KSx6DE4UStiCu-57">
          <mxGeometry width="29.33" height="12.5" as="geometry" />
        </mxCell>
        <mxCell id="YMjLnd_KSx6DE4UStiCu-59" value="" style="endArrow=none;html=1;rounded=0;entryX=0.25;entryY=0;entryDx=0;entryDy=0;exitX=0.25;exitY=1;exitDx=0;exitDy=0;" edge="1" parent="YMjLnd_KSx6DE4UStiCu-57" source="YMjLnd_KSx6DE4UStiCu-58" target="YMjLnd_KSx6DE4UStiCu-58">
          <mxGeometry width="50" height="50" relative="1" as="geometry">
            <mxPoint x="10.99875" y="16.666666666666668" as="sourcePoint" />
            <mxPoint x="48.394499999999994" y="5.833333333333334" as="targetPoint" />
          </mxGeometry>
        </mxCell>
        <mxCell id="YMjLnd_KSx6DE4UStiCu-60" value="" style="endArrow=none;html=1;rounded=0;entryX=0.5;entryY=0;entryDx=0;entryDy=0;exitX=0.5;exitY=1;exitDx=0;exitDy=0;" edge="1" parent="YMjLnd_KSx6DE4UStiCu-57" source="YMjLnd_KSx6DE4UStiCu-58" target="YMjLnd_KSx6DE4UStiCu-58">
          <mxGeometry width="50" height="50" relative="1" as="geometry">
            <mxPoint x="17.598" y="10.833333333333334" as="sourcePoint" />
            <mxPoint x="14.665" y="6.666666666666667" as="targetPoint" />
          </mxGeometry>
        </mxCell>
        <mxCell id="YMjLnd_KSx6DE4UStiCu-61" value="" style="endArrow=none;html=1;rounded=0;entryX=0.75;entryY=0;entryDx=0;entryDy=0;exitX=0.75;exitY=1;exitDx=0;exitDy=0;" edge="1" parent="YMjLnd_KSx6DE4UStiCu-57" source="YMjLnd_KSx6DE4UStiCu-58" target="YMjLnd_KSx6DE4UStiCu-58">
          <mxGeometry width="50" height="50" relative="1" as="geometry">
            <mxPoint x="23.464" y="7.5" as="sourcePoint" />
            <mxPoint x="23.464" y="7.5" as="targetPoint" />
          </mxGeometry>
        </mxCell>
        <mxCell id="YMjLnd_KSx6DE4UStiCu-62" value="" style="group;rotation=110;fillColor=#FFFFFF;" vertex="1" connectable="0" parent="1">
          <mxGeometry x="439.00441666666666" y="-707" width="29.33" height="12.5" as="geometry" />
        </mxCell>
        <mxCell id="YMjLnd_KSx6DE4UStiCu-63" value="" style="rounded=0;whiteSpace=wrap;html=1;rotation=110;" vertex="1" parent="YMjLnd_KSx6DE4UStiCu-62">
          <mxGeometry width="29.33" height="12.5" as="geometry" />
        </mxCell>
        <mxCell id="YMjLnd_KSx6DE4UStiCu-64" value="" style="endArrow=none;html=1;rounded=0;entryX=0.25;entryY=0;entryDx=0;entryDy=0;exitX=0.25;exitY=1;exitDx=0;exitDy=0;" edge="1" parent="YMjLnd_KSx6DE4UStiCu-62" source="YMjLnd_KSx6DE4UStiCu-63" target="YMjLnd_KSx6DE4UStiCu-63">
          <mxGeometry width="50" height="50" relative="1" as="geometry">
            <mxPoint x="11" y="-4" as="sourcePoint" />
            <mxPoint x="-11" y="28" as="targetPoint" />
          </mxGeometry>
        </mxCell>
        <mxCell id="YMjLnd_KSx6DE4UStiCu-65" value="" style="endArrow=none;html=1;rounded=0;entryX=0.5;entryY=0;entryDx=0;entryDy=0;exitX=0.5;exitY=1;exitDx=0;exitDy=0;" edge="1" parent="YMjLnd_KSx6DE4UStiCu-62" source="YMjLnd_KSx6DE4UStiCu-63" target="YMjLnd_KSx6DE4UStiCu-63">
          <mxGeometry width="50" height="50" relative="1" as="geometry">
            <mxPoint x="10" y="5" as="sourcePoint" />
            <mxPoint x="14" y="6" as="targetPoint" />
          </mxGeometry>
        </mxCell>
        <mxCell id="YMjLnd_KSx6DE4UStiCu-66" value="" style="endArrow=none;html=1;rounded=0;entryX=0.75;entryY=0;entryDx=0;entryDy=0;exitX=0.75;exitY=1;exitDx=0;exitDy=0;" edge="1" parent="YMjLnd_KSx6DE4UStiCu-62" source="YMjLnd_KSx6DE4UStiCu-63" target="YMjLnd_KSx6DE4UStiCu-63">
          <mxGeometry width="50" height="50" relative="1" as="geometry">
            <mxPoint x="7" y="11" as="sourcePoint" />
            <mxPoint x="7" y="11" as="targetPoint" />
          </mxGeometry>
        </mxCell>
        <mxCell id="YMjLnd_KSx6DE4UStiCu-69" value="" style="group;rotation=-180;fillColor=#FFFFFF;" vertex="1" connectable="0" parent="1">
          <mxGeometry x="370.6744166666667" y="-666.25" width="29.33" height="12.5" as="geometry" />
        </mxCell>
        <mxCell id="YMjLnd_KSx6DE4UStiCu-70" value="" style="rounded=0;whiteSpace=wrap;html=1;rotation=-180;" vertex="1" parent="YMjLnd_KSx6DE4UStiCu-69">
          <mxGeometry width="29.33" height="12.5" as="geometry" />
        </mxCell>
        <mxCell id="YMjLnd_KSx6DE4UStiCu-71" value="" style="endArrow=none;html=1;rounded=0;entryX=0.25;entryY=0;entryDx=0;entryDy=0;exitX=0.25;exitY=1;exitDx=0;exitDy=0;" edge="1" parent="YMjLnd_KSx6DE4UStiCu-69" source="YMjLnd_KSx6DE4UStiCu-70" target="YMjLnd_KSx6DE4UStiCu-70">
          <mxGeometry width="50" height="50" relative="1" as="geometry">
            <mxPoint x="23" y="-1" as="sourcePoint" />
            <mxPoint x="-15" y="-10" as="targetPoint" />
          </mxGeometry>
        </mxCell>
        <mxCell id="YMjLnd_KSx6DE4UStiCu-72" value="" style="endArrow=none;html=1;rounded=0;entryX=0.5;entryY=0;entryDx=0;entryDy=0;exitX=0.5;exitY=1;exitDx=0;exitDy=0;" edge="1" parent="YMjLnd_KSx6DE4UStiCu-69" source="YMjLnd_KSx6DE4UStiCu-70" target="YMjLnd_KSx6DE4UStiCu-70">
          <mxGeometry width="50" height="50" relative="1" as="geometry">
            <mxPoint x="14" y="1" as="sourcePoint" />
            <mxPoint x="15" y="6" as="targetPoint" />
          </mxGeometry>
        </mxCell>
        <mxCell id="YMjLnd_KSx6DE4UStiCu-73" value="" style="endArrow=none;html=1;rounded=0;entryX=0.75;entryY=0;entryDx=0;entryDy=0;exitX=0.75;exitY=1;exitDx=0;exitDy=0;" edge="1" parent="YMjLnd_KSx6DE4UStiCu-69" source="YMjLnd_KSx6DE4UStiCu-70" target="YMjLnd_KSx6DE4UStiCu-70">
          <mxGeometry width="50" height="50" relative="1" as="geometry">
            <mxPoint x="8" y="1" as="sourcePoint" />
            <mxPoint x="8" y="1" as="targetPoint" />
          </mxGeometry>
        </mxCell>
        <mxCell id="YMjLnd_KSx6DE4UStiCu-75" value="" style="group;rotation=-110;fillColor=#FFFFFF;" vertex="1" connectable="0" parent="1">
          <mxGeometry x="293.6744166666667" y="-701" width="29.33" height="12.5" as="geometry" />
        </mxCell>
        <mxCell id="YMjLnd_KSx6DE4UStiCu-76" value="" style="rounded=0;whiteSpace=wrap;html=1;rotation=-110;" vertex="1" parent="YMjLnd_KSx6DE4UStiCu-75">
          <mxGeometry width="29.33" height="12.5" as="geometry" />
        </mxCell>
        <mxCell id="YMjLnd_KSx6DE4UStiCu-77" value="" style="endArrow=none;html=1;rounded=0;entryX=0.25;entryY=0;entryDx=0;entryDy=0;exitX=0.25;exitY=1;exitDx=0;exitDy=0;" edge="1" parent="YMjLnd_KSx6DE4UStiCu-75" source="YMjLnd_KSx6DE4UStiCu-76" target="YMjLnd_KSx6DE4UStiCu-76">
          <mxGeometry width="50" height="50" relative="1" as="geometry">
            <mxPoint x="25" y="12" as="sourcePoint" />
            <mxPoint x="20" y="-27" as="targetPoint" />
          </mxGeometry>
        </mxCell>
        <mxCell id="YMjLnd_KSx6DE4UStiCu-78" value="" style="endArrow=none;html=1;rounded=0;entryX=0.5;entryY=0;entryDx=0;entryDy=0;exitX=0.5;exitY=1;exitDx=0;exitDy=0;" edge="1" parent="YMjLnd_KSx6DE4UStiCu-75" source="YMjLnd_KSx6DE4UStiCu-76" target="YMjLnd_KSx6DE4UStiCu-76">
          <mxGeometry width="50" height="50" relative="1" as="geometry">
            <mxPoint x="20" y="4" as="sourcePoint" />
            <mxPoint x="15" y="6" as="targetPoint" />
          </mxGeometry>
        </mxCell>
        <mxCell id="YMjLnd_KSx6DE4UStiCu-79" value="" style="endArrow=none;html=1;rounded=0;entryX=0.75;entryY=0;entryDx=0;entryDy=0;exitX=0.75;exitY=1;exitDx=0;exitDy=0;" edge="1" parent="YMjLnd_KSx6DE4UStiCu-75" source="YMjLnd_KSx6DE4UStiCu-76" target="YMjLnd_KSx6DE4UStiCu-76">
          <mxGeometry width="50" height="50" relative="1" as="geometry">
            <mxPoint x="17" y="-2" as="sourcePoint" />
            <mxPoint x="17" y="-2" as="targetPoint" />
          </mxGeometry>
        </mxCell>
        <mxCell id="YMjLnd_KSx6DE4UStiCu-80" value="" style="ellipse;whiteSpace=wrap;html=1;aspect=fixed;fillColor=#000000;" vertex="1" parent="1">
          <mxGeometry x="302" y="-708" width="5" height="5" as="geometry" />
        </mxCell>
      </root>
    </mxGraphModel>
  </diagram>
</mxfile>
